# xmcd
#
# Track frame offsets: 
#        150
#        11512
#        24517
#        41788
#        55295
#        66714
#        79926
#        94425
#        107059
#        121057
#        134708
#        148484
#
# Disc length: 2121 seconds
#
# Revision: 2
# Processed by: cddbd v1.5.2PL0 Copyright (c) Steve Scherf et al.
# Submitted via: ExactAudioCopy v0.95a4
#
DISCID=b908470c
DTITLE=Alexis Korner's Blues Incorporated - R&B From The Marquee
DYEAR=2015
DGENRE=Blues
TTITLE0=Gotta Move
TTITLE1=Rain Is Such A Lonesome Sound
TTITLE2=I Got My Brand On You
TTITLE3=Spooky But Nice
TTITLE4=Keep Your Hands Off
TTITLE5=I Wanna Put A Tiger In Your Tank
TTITLE6=I Got My Mojo Working
TTITLE7=Finkle's Cafe
TTITLE8=Hoochie Coochie
TTITLE9=Down Town
TTITLE10=How Long, How Long, Blues
TTITLE11=I Thought I Heard That Train Whistle Blow
EXTD=Ace of Clubs/Decca
EXTT0=
EXTT1=
EXTT2=
EXTT3=
EXTT4=
EXTT5=
EXTT6=
EXTT7=
EXTT8=
EXTT9=
EXTT10=
EXTT11=
PLAYORDER=
